<svg width="105" height="32" viewBox="0 0 105 32" fill="none" xmlns="http://www.w3.org/2000/svg">
<path d="M93.3906 23.4898L88.1127 8.48145H91.7269L96.0009 21.2717L99.5291 8.48145H103L98.726 22.856C98.267 24.3732 97.7316 25.6119 97.1196 26.5721C96.5077 27.5323 95.7523 28.2717 94.8536 28.7902C93.9548 29.3279 92.8265 29.7312 91.4688 30.0001L90.723 27.1194C92.0233 26.7929 92.9986 26.3705 93.6488 25.8519C94.299 25.3334 94.8057 24.546 95.1691 23.4898H93.3906Z" fill="#F29111"/>
<path d="M72.3015 23.6339V2.69141H79.444C84.4542 2.69141 86.9593 4.98635 86.9593 9.57623C86.9593 14.1661 84.4542 16.461 79.444 16.461H75.8584V23.6339H72.3015ZM78.6982 5.60089H75.8584V13.5516H78.6982C80.3428 13.5516 81.5284 13.2443 82.2551 12.6297C83.0009 11.996 83.3738 10.9782 83.3738 9.57623C83.3738 8.15509 83.0009 7.13725 82.2551 6.52271C81.5284 5.90816 80.3428 5.60089 78.6982 5.60089Z" fill="#F29111"/>
<path d="M64.6214 23.6339V4.5638L63.1011 3.44034V2H68.1209V23.6339H64.6214Z" fill="white"/>
<path d="M58.4003 23.6343L57.9127 21.3873C57.3581 22.2131 56.6601 22.8565 55.8187 23.3174C54.9773 23.7591 54.0498 23.98 53.0363 23.98C51.4873 23.98 50.2539 23.5479 49.336 22.6837C48.4372 21.8194 47.9878 20.648 47.9878 19.1692C47.9878 17.5945 48.5615 16.3558 49.7089 15.4532C50.8563 14.5505 52.4243 14.0992 54.4131 14.0992H57.2529V13.3791C57.2529 12.4188 57.0521 11.7659 56.6505 11.4202C56.249 11.0745 55.5414 10.9017 54.5279 10.9017C53.0172 10.9017 51.2961 11.257 49.3647 11.9675V9.23089C50.1296 8.90441 50.9997 8.64515 51.975 8.45311C52.9502 8.26106 53.9064 8.16504 54.8434 8.16504C58.7636 8.16504 60.7238 9.89345 60.7238 13.3503V23.6343H58.4003ZM53.7534 21.3297C54.461 21.3297 55.1303 21.1473 55.7613 20.7824C56.3924 20.3983 56.9087 19.8702 57.3103 19.198V16.3462H54.8147C52.5008 16.3462 51.3439 17.1912 51.3439 18.8812C51.3439 19.6493 51.5542 20.2543 51.975 20.696C52.3957 21.1185 52.9885 21.3297 53.7534 21.3297Z" fill="white"/>
<path d="M42.7412 23.6343L42.2536 21.3873C41.699 22.2131 41.001 22.8565 40.1596 23.3174C39.3182 23.7591 38.3907 23.98 37.3772 23.98C35.8283 23.98 34.5948 23.5479 33.6769 22.6837C32.7781 21.8194 32.3287 20.648 32.3287 19.1692C32.3287 17.5945 32.9024 16.3558 34.0498 15.4532C35.1972 14.5505 36.7653 14.0992 38.7541 14.0992H41.5939V13.3791C41.5939 12.4188 41.3931 11.7659 40.9915 11.4202C40.5899 11.0745 39.8823 10.9017 38.8688 10.9017C37.3581 10.9017 35.637 11.257 33.7056 11.9675V9.23089C34.4705 8.90441 35.3406 8.64515 36.3159 8.45311C37.2912 8.26106 38.2473 8.16504 39.1844 8.16504C43.1046 8.16504 45.0647 9.89345 45.0647 13.3503V23.6343H42.7412ZM38.0943 21.3297C38.8019 21.3297 39.4712 21.1473 40.1023 20.7824C40.7333 20.3983 41.2496 19.8702 41.6512 19.198V16.3462H39.1557C36.8418 16.3462 35.6848 17.1912 35.6848 18.8812C35.6848 19.6493 35.8952 20.2543 36.3159 20.696C36.7366 21.1185 37.3294 21.3297 38.0943 21.3297Z" fill="white"/>
<path d="M22.687 23.6348V8.48242H25.0105L25.5555 10.9886C26.0335 10.182 26.6359 9.55787 27.3626 9.11617C28.0893 8.65526 28.9403 8.4248 29.9155 8.4248C30.2789 8.4248 30.6135 8.45361 30.9195 8.51122V11.6512H30.0876C29.0359 11.6512 28.1753 11.9488 27.506 12.5442C26.8367 13.1203 26.3969 13.8885 26.1865 14.8487V23.6348H22.687Z" fill="white"/>
<path d="M11.9249 14.6455V12.5714H19.2681V22.5961C18.3311 23.057 17.2698 23.4027 16.0841 23.6332C14.8985 23.8828 13.6842 24.0077 12.4412 24.0077C9.01817 24.0077 6.41743 23.0762 4.63898 21.2134C2.87966 19.3314 2 16.5659 2 12.9171C2 10.6893 2.43027 8.78808 3.29081 7.21331C4.15135 5.63854 5.38478 4.42866 6.99112 3.58366C8.61658 2.73866 10.5671 2.31616 12.8428 2.31616C13.7798 2.31616 14.6786 2.40258 15.5391 2.57542C16.4188 2.72906 17.222 2.96912 17.9486 3.29559V6.34911C16.9925 6.02263 16.1224 5.79218 15.3383 5.65775C14.5543 5.50411 13.7702 5.42729 12.9862 5.42729C10.6341 5.42729 8.81737 6.08025 7.53613 7.38616C6.27401 8.67286 5.64294 10.5165 5.64294 12.9171C5.64294 18.2175 7.93771 20.8677 12.5273 20.8677C13.6364 20.8677 14.7551 20.7525 15.8833 20.522V15.7113L11.9249 14.6455Z" fill="white"/>
</svg>
